<?xml version="1.0" encoding="UTF-8"?>
<svg xmlns="http://www.w3.org/2000/svg" xmlns:xlink="http://www.w3.org/1999/xlink" viewBox="0 0 32 32" width="32px" height="32px">
<g id="surface63364004">
<path style=" stroke:none;fill-rule:nonzero;fill:rgb(100%,100%,100%);fill-opacity:1;" d="M 24 3.5 L 8 3.5 C 5.789062 3.5 4 5.289062 4 7.5 L 4 23.5 C 4 25.710938 5.789062 27.5 8 27.5 L 16.5 27.5 L 16.5 19 L 13.5 19 L 13.5 15.5 L 16.5 15.5 L 16.5 13 C 16.5 9.5 18.5 7.5 21.5 7.5 C 23.066406 7.5 24 8 24 8 L 24 11 L 22 11 C 20.570312 11 20 12.046875 20 13 L 20 15.5 L 23.5 15.5 L 23 19 L 20 19 L 20 27.5 L 24 27.5 C 26.210938 27.5 28 25.710938 28 23.5 L 28 7.5 C 28 5.289062 26.210938 3.5 24 3.5 Z M 24 3.5 "/>
</g>
</svg>
