<?xml version="1.0" encoding="UTF-8"?>
<svg xmlns="http://www.w3.org/2000/svg" xmlns:xlink="http://www.w3.org/1999/xlink" viewBox="0 0 32 32" width="32px" height="32px">
<g id="surface63640671">
<path style=" stroke:none;fill-rule:nonzero;fill:rgb(100%,100%,100%);fill-opacity:1;" d="M 10.238281 1.921875 C 5.652344 1.921875 1.921875 5.652344 1.921875 10.238281 L 1.921875 21.761719 C 1.921875 26.347656 5.652344 30.078125 10.238281 30.078125 L 21.761719 30.078125 C 26.347656 30.078125 30.078125 26.347656 30.078125 21.761719 L 30.078125 10.238281 C 30.078125 5.652344 26.347656 1.921875 21.761719 1.921875 Z M 23.679688 7.039062 C 24.382812 7.039062 24.960938 7.617188 24.960938 8.320312 C 24.960938 9.023438 24.382812 9.601562 23.679688 9.601562 C 22.976562 9.601562 22.398438 9.023438 22.398438 8.320312 C 22.398438 7.617188 22.976562 7.039062 23.679688 7.039062 Z M 16 8.960938 C 19.886719 8.960938 23.039062 12.113281 23.039062 16 C 23.039062 19.886719 19.886719 23.039062 16 23.039062 C 12.113281 23.039062 8.960938 19.886719 8.960938 16 C 8.960938 12.113281 12.113281 8.960938 16 8.960938 Z M 16 10.238281 C 12.824219 10.238281 10.238281 12.824219 10.238281 16 C 10.238281 19.175781 12.824219 21.761719 16 21.761719 C 19.175781 21.761719 21.761719 19.175781 21.761719 16 C 21.761719 12.824219 19.175781 10.238281 16 10.238281 Z M 16 10.238281 "/>
</g>
</svg>
